# AST/ASF file generated using VICON BodyLanguage
# -----------------------------------------------
:version 1.10
:name VICON
:units
  mass 1.0
  length 0.45
  angle deg
:documentation
   .ast/.asf automatically generated from VICON data using
   VICON BodyBuilder and BodyLanguage model FoxedUp or BRILLIANT.MOD
:root
   order TX TY TZ RX RY RZ
   axis XYZ
   position 0 0 0  
   orientation 0 0 0 
:bonedata
  begin
     id 1 
     name lhipjoint
     direction 0.561145 -0.797705 0.220866 
     length 2.46425 
     axis 0 0 0  XYZ
  end
  begin
     id 2 
     name lfemur
     direction 0.34202 -0.939693 0  
     length 7.95556  
     axis 0 0 20  XYZ
    dof rx ry rz
    limits (-160.0 20.0)
           (-70.0 70.0)
           (-60.0 70.0)
  end
  begin
     id 3 
     name ltibia
     direction 0.34202 -0.939693 0   
     length 7.9832   
     axis 0 0 20   XYZ
    dof rx
    limits (-10.0 170.0)
  end
  begin
     id 4 
     name lfoot
     direction 0.0723927 -0.198897 0.977343   
     length 2.23085   
     axis -90 7.62852e-016 20   XYZ
    dof rx rz
    limits (-45.0 90.0)
           (-70.0 20.0)
  end
  begin
     id 5 
     name ltoes
     direction 1.53826e-011 -4.21988e-011 1   
     length 1.12127   
     axis -90 7.62852e-016 20   XYZ
    dof rx
    limits (-90.0 20.0)
  end
  begin
     id 6 
     name rhipjoint
     direction -0.610499 -0.763299 0.21134   
     length 2.57533  
     axis 0 0 0  XYZ 
  end
  begin
     id 7 
     name rfemur
     direction -0.34202 -0.939693 0   
     length 8.65257   
     axis 0 0 -20   XYZ
    dof rx ry rz
    limits (-160.0 20.0)
           (-70.0 70.0)
           (-70.0 60.0)
  end
  begin
     id 8 
     name rtibia
     direction -0.342021 -0.939692 0   
     length 7.37807   
     axis 0 0 -20   XYZ
    dof rx
    limits (-10.0 170.0)
 end
 begin
     id 9 
     name rfoot
     direction -0.0239304 -0.0543852 0.998233   
     length 1.87018  
     axis -90 -7.62852e-016 -20   XYZ
    dof rx rz
    limits (-45.0 90.0)
           (-20.0 70.0)
  end
  begin
     id 10 
     name rtoes
     direction -1.53584e-011 -4.2242e-011 1   
     length 0.951568   
     axis -90 -7.62852e-016 -20   XYZ
    dof rx
    limits (-90.0 20.0)
  end
  begin
     id 11 
     name lowerback
     direction 0.00322089 0.999033 0.0438587   
     length 2.07568   
     axis 0 0 0   XYZ
    dof rx ry rz
    limits (-20.0 45.0)
           (-30.0 30.0)
           (-30.0 30.0)
  end
  begin
     id 12 
     name upperback
     direction -0.00321932 0.999732 -0.0229403   
     length 2.06253   
     axis 0 0 0   XYZ
    dof rx ry rz
    limits (-20.0 45.0)
           (-30.0 30.0)
           (-30.0 30.0)
  end
  begin
     id 13 
     name thorax
     direction -0.00537537 0.998955 -0.0453918   
     length 2.06975   
     axis 0 0 0   XYZ
    dof rx ry rz
    limits (-20.0 45.0)
           (-30.0 30.0)
           (-30.0 30.0)
  end
  begin
     id 14 
     name lowerneck
     direction -0.00013604 0.994111 0.108363   
     length 1.50836   
     axis 0 0 0   XYZ
    dof rx ry rz
    limits (-20.0 45.0)
           (-30.0 30.0)
           (-30.0 30.0)
  end
  begin
     id 15 
     name upperneck
     direction 0.0397262 0.983859 -0.174482   
     length 1.53037   
     axis 0 0 0   XYZ
    dof rx ry rz
    limits (-20.0 45.0)
           (-30.0 30.0)
           (-30.0 30.0)
  end
  begin
     id 16
     name head
     direction 0.0109991 0.997082 -0.0755378  
     length 1.56928  
     axis 0 0 0   XYZ
    dof rx ry rz
    limits (-20.0 45.0)
           (-30.0 30.0)
           (-30.0 30.0)
  end
  begin
     id 17 
     name lclavicle
     direction 0.964749 0.254 -0.068874  
     length 3.26503  
     axis 0 0 0   XYZ
    dof ry rz
    limits (-20.0 10.0)
           (0.0 20.0)
  end
  begin
     id 18 
     name lhumerus
     direction 1 -4.48941e-011 -2.05079e-027   
     length 5.68236   
     axis 180 -30 -90   XYZ
    dof rx ry rz
    limits (-60.0 90.0)
           (-90.0 90.0)
           (-90.0 90.0)
  end
  begin
     id 19
     name lradius
     direction 1 -4.48956e-011 6.2882e-027   
     length 3.17112   
     axis 180 -30 -90   XYZ
    dof rx
    limits (-10.0 170.0)
  end
  begin
     id 20
     name lwrist
     direction 1 -4.49014e-011 1.73219e-026   
     length 1.58556   
     axis -1.04724e-014 90 90   XYZ
    dof ry
    limits (-180.0 0.0)
 end
  begin
     id 21 
     name lhand
     direction 1 -4.49312e-011 3.46438e-026   
     length 0.632691   
     axis -2.21057e-014 90 90   XYZ
    dof rx rz
    limits (-90.0 90.0)
           (-45.0 45.0)
  end
  begin
     id 22 
     name lfingers
     direction 1 -4.48894e-011 6.92876e-026   
     length 0.510091   
     axis -4.42114e-014 90 90   XYZ
    dof rx
    limits (0.0 90.0)
  end
  begin
     id 23
     name lthumb
     direction 0.707107 -6.34705e-011 0.707107   
     length 0.732392   
     axis -90 45 2.85299e-015   XYZ
    dof rx rz
    limits (-45.0 45.0)
           (-45.0 45.0)
  end
  begin
     id 24 
     name rclavicle
     direction -0.954374 0.280496 -0.102435   
     length 3.25419  
     axis 0 0 0   XYZ 
    dof ry rz
    limits (-10.0 20.0)
           (-20.0 0.0)
  end
  begin
     id 25 
     name rhumerus
     direction -1 -4.48994e-011 -1.07204e-017  
     length 5.8712   
     axis 180 30 90   XYZ
    dof rx ry rz
    limits (-90.0 60.0)
           (-90.0 90.0)
           (-90.0 90.0)
  end
  begin
     id 26 
     name rradius
     direction -1 -4.48972e-011 5.89292e-027   
     length 3.37589   
     axis 180 30 90   XYZ
    dof rx
    limits (-10.0 170.0)
  end
  begin
     id 27 
     name rwrist
     direction -1 -4.48942e-011 1.73219e-026   
     length 1.68794   
     axis -1.04724e-014 -90 -90   XYZ
    dof ry
    limits (-180.0 0.0)
  end
  begin
     id 28
     name rhand
     direction -1 -4.48514e-011 3.46438e-026   
     length 0.603257   
     axis -2.21057e-014 -90 -90   XYZ
    dof rx rz
    limits (-90.0 90.0)
           (-45.0 45.0)
  end
  begin
     id 29
     name rfingers
     direction -1 -4.50028e-011 6.92876e-026   
     length 0.486362   
     axis -4.42114e-014 -90 -90   XYZ
    dof rx
    limits (0.0 90.0)
  end
  begin
     id 30
     name rthumb
     direction -0.707107 -6.34926e-011 0.707107   
     length 0.698321   
     axis -90 -45 -2.85299e-015   XYZ
    dof rx rz
    limits (-45.0 45.0)
           (-45.0 45.0)
  end
:hierarchy
  begin
    root lhipjoint rhipjoint lowerback
    lhipjoint lfemur
    lfemur ltibia
    ltibia lfoot
    lfoot ltoes
    rhipjoint rfemur
    rfemur rtibia
    rtibia rfoot
    rfoot rtoes
    lowerback upperback
    upperback thorax
    thorax lowerneck lclavicle rclavicle
    lowerneck upperneck
    upperneck head
    lclavicle lhumerus
    lhumerus lradius
    lradius lwrist
    lwrist lhand lthumb
    lhand lfingers
    rclavicle rhumerus
    rhumerus rradius
    rradius rwrist
    rwrist rhand rthumb
    rhand rfingers
  end

#!OML:ASF I:\Segmentation\Patient Classification 1\Patient 1\Session 1\Patient1.ASF
:FULLY-SPECIFIED
:DEGREES
3578
root 25.9532 17.6602 -5.34133 16.9091 -443.121 -1448.35
lowerback -12.46 0.185722 -3.51227
upperback 1.0124 0.691903 0.970741
thorax 8.0386 0.155565 3.15322
lowerneck -18.3314 -2.11261 -3.99578
upperneck 18.1743 -2.27783 1.95724
head 8.77651 -1.16093 1.02701
rclavicle 2.68359e-015 -2.07233e-014
rhumerus -35.2411 1.27071 -76.0508
rradius 61.0894
rwrist 4.78473
rhand -17.8605 32.8386
rfingers 7.12502
rthumb 8.40493 3.02588
lclavicle 2.68359e-015 -2.07233e-014
lhumerus -33.7045 -13.6393 81.9137
lradius 87.6987
lwrist 24.9784
lhand -17.7743 34.2082
lfingers 7.12502
lthumb 8.48817 64.0176
rfemur -23.1562 -4.77148 21.5431
rtibia 64.6777
rfoot -2.13434 2.61673
rtoes -41.5637
lfemur -35.9944 -2.31821 -21.7807
ltibia 47.7123
lfoot -16.2694 -2.63819
ltoes -8.76983
3579
root 25.9195 17.6536 -5.32143 17.349 -443.128 -1448.98
lowerback -12.4 0.246908 -3.53093
upperback 1.06072 0.779193 0.925277
thorax 8.04988 0.197576 3.1313
lowerneck -18.3384 -2.18765 -4.02608
upperneck 18.2094 -2.38759 2.02196
head 8.79454 -1.20777 1.03975
rclavicle 7.87063e-015 -1.14301e-014
rhumerus -35.2974 1.02091 -75.8567
rradius 61.0645
rwrist 4.78794
rhand -17.9074 33.0049
rfingers 7.12502
rthumb 8.35971 3.19033
lclavicle 7.87063e-015 -1.14301e-014
lhumerus -33.3837 -13.7886 81.6371
lradius 87.9371
lwrist 25.0494
lhand -17.9154 34.4191
lfingers 7.12502
lthumb 8.35194 64.234
rfemur -24.3118 -4.88254 21.3942
rtibia 66.9208
rfoot -1.3317 2.90571
rtoes -41.1128
lfemur -35.73 -2.35945 -21.7582
ltibia 47.8832
lfoot -16.4552 -2.74965
ltoes -8.22326
3580
root 25.8933 17.648 -5.3027 18.1024 -443.217 -1449.88
lowerback -12.3023 0.327263 -3.47274
upperback 1.08541 0.883276 0.821656
thorax 8.01451 0.253918 3.00561
lowerneck -18.265 -2.21941 -3.92201
upperneck 18.1178 -2.46707 2.04755
head 8.75148 -1.23475 1.0216
rclavicle 1.49834e-014 1.78906e-015
rhumerus -35.3548 0.718117 -75.791
rradius 61.0724
rwrist 4.8252
rhand -17.8086 33.172
rfingers 7.12502
rthumb 8.45504 3.36128
lclavicle 1.49834e-014 1.78906e-015
lhumerus -33.0388 -14.0212 81.2684
lradius 88.1833
lwrist 24.9641
lhand -17.8433 34.5285
lfingers 7.12502
lthumb 8.42154 64.3405
rfemur -25.6206 -4.87629 21.2635
rtibia 69.2454
rfoot -0.733176 3.28432
rtoes -40.9373
lfemur -35.5563 -2.27327 -21.7324
ltibia 48.0558
lfoot -16.6032 -2.82024
ltoes -8.30726
3581
root 25.8749 17.6432 -5.28714 19.382 -443.259 -1451.19
lowerback -12.2077 0.365772 -3.42107
upperback 1.08483 0.928868 0.757194
thorax 7.95785 0.281311 2.91411
lowerneck -18.2773 -2.18355 -3.77428
upperneck 17.9919 -2.47043 2.12238
head 8.7095 -1.21651 1.02236
rclavicle 1.59028e-014 4.37326e-015
rhumerus -35.3629 0.615789 -75.7473
rradius 61.1456
rwrist 4.73455
rhand -17.7185 32.9643
rfingers 7.12502
rthumb 8.54203 3.15707
lclavicle 1.59028e-014 4.37326e-015
lhumerus -32.6825 -14.2679 80.9232
lradius 88.4538
lwrist 24.8185
lhand -17.9804 34.7436
lfingers 7.12502
lthumb 8.28921 64.561
rfemur -27.1342 -4.84734 21.2216
rtibia 71.6663
rfoot -0.245066 3.6514
rtoes -40.6334
lfemur -35.5464 -2.22819 -21.6213
ltibia 48.2301
lfoot -16.7785 -2.88609
ltoes -8.14216
3582
root 25.8578 17.6347 -5.27248 20.9043 -443.172 -1452.69
lowerback -12.1885 0.284844 -3.45639
upperback 1.09384 0.818674 0.846487
thorax 7.96337 0.223877 3.0087
lowerneck -18.4975 -2.12291 -3.73294
upperneck 18.0718 -2.38278 2.08969
head 8.7722 -1.17441 1.0144
rclavicle -9.31803e-016 9.93923e-016
rhumerus -35.1975 0.749267 -75.6052
rradius 61.1338
rwrist 4.74196
rhand -17.7631 32.7684
rfingers 7.12502
rthumb 8.49895 2.95944
lclavicle -9.31803e-016 9.93923e-016
lhumerus -32.3187 -14.2448 80.7516
lradius 88.7055
lwrist 24.8697
lhand -17.9946 34.6895
lfingers 7.12502
lthumb 8.27553 64.5074
rfemur -28.8101 -4.92619 21.2737
rtibia 74.2042
rfoot 0.21662 3.95468
rtoes -40.0575
lfemur -35.6201 -2.27806 -21.4395
ltibia 48.402
lfoot -16.8809 -2.97181
ltoes -7.94144
